<svg width="68" height="69" viewBox="0 0 68 69" fill="none" xmlns="http://www.w3.org/2000/svg">
<mask id="mask0_44_3875" style="mask-type:alpha" maskUnits="userSpaceOnUse" x="18" y="2" width="50" height="67">
<path d="M18.0259 30.4696C20.4635 21.6453 29.5812 16.4743 38.407 18.9119C47.2313 21.3495 52.4023 30.4673 49.9647 39.2923C46.4302 52.0863 37.2126 62.5318 24.9637 67.6662C39.8591 71.7807 56.1547 65.2766 63.86 51.1221C72.8383 34.6298 66.7275 13.9948 50.236 5.01656C47.9227 3.74898 45.5018 2.77866 43.0513 2.10181C30.7345 7.11802 21.4734 17.6268 18.0259 30.4696Z" fill="#F4F5FA"/>
</mask>
<g mask="url(#mask0_44_3875)">
<rect x="-2.57275" y="-1.69482" width="73.1457" height="73.1457" fill="url(#paint0_linear_44_3875)"/>
</g>
<mask id="mask1_44_3875" style="mask-type:alpha" maskUnits="userSpaceOnUse" x="0" y="0" width="50" height="68">
<path d="M17.7537 64.7456C20.0899 66.0192 22.4878 66.9827 24.9399 67.6603L24.9628 67.6664C37.2118 62.532 46.4294 52.0865 49.9638 39.2925C47.5262 48.1176 38.4077 53.2885 29.5834 50.8509C20.7576 48.4126 15.5866 39.2948 18.025 30.4698C21.4718 17.627 30.7336 7.11823 43.0504 2.10202C28.1603 -2.03611 11.8418 4.46187 4.13039 18.64C-4.825 35.1384 1.26137 55.7673 17.7537 64.7456Z" fill="#F4F5FA"/>
</mask>
<g mask="url(#mask1_44_3875)">
<rect x="-2.57275" y="-1.69482" width="73.1457" height="73.1457" fill="url(#paint1_linear_44_3875)"/>
</g>
<defs>
<linearGradient id="paint0_linear_44_3875" x1="-2.57275" y1="34.878" x2="71.8489" y2="36.204" gradientUnits="userSpaceOnUse">
<stop stop-color="#0E64E5"/>
<stop offset="1" stop-color="#7B32FF"/>
</linearGradient>
<linearGradient id="paint1_linear_44_3875" x1="-2.57275" y1="34.878" x2="48.5751" y2="47.1895" gradientUnits="userSpaceOnUse">
<stop stop-color="#0E64E5"/>
<stop offset="1" stop-color="#7B32FF"/>
</linearGradient>
</defs>
</svg>
