<svg width="255" height="134" viewBox="0 0 255 134" fill="none" xmlns="http://www.w3.org/2000/svg">
<path d="M49.9995 0.0569856C65.5461 0.0569856 79.38 4.76746 91.5011 14.1884C103.754 23.6094 111.725 35.7781 115.414 50.6946C119.235 65.4803 117.983 79.9389 111.659 94.0703C105.467 108.071 95.5854 118.735 82.015 126.062C68.4447 133.259 54.0179 135.549 38.7348 132.932C23.4517 130.315 10.606 123.38 0.197627 112.127L22.5294 91.9113C27.6677 97.6686 33.9918 101.398 41.5016 103.099C49.0114 104.8 56.3894 104.276 63.6357 101.529C70.8821 98.7808 76.6791 94.2666 81.0269 87.9859C85.3747 81.5745 87.4827 74.5742 87.3509 66.9851C87.3509 59.2651 85.177 52.2648 80.8293 45.9842C76.4815 39.5727 70.6844 34.993 63.4381 32.2453C56.1918 29.4975 48.8138 29.0395 41.3039 30.8714C33.7941 32.7032 27.4701 36.4324 22.3318 42.0588L0 22.2355C6.4558 15.1698 14.0315 9.73964 22.7271 5.94508C31.4226 2.01968 40.5134 0.0569856 49.9995 0.0569856Z" fill="url(#paint0_linear_10_323)"/>
<path d="M232.668 91.7151L255 111.735C245.646 122.072 234.183 128.876 220.613 132.147C207.043 135.287 193.736 134.437 180.692 129.595C167.781 124.623 157.307 116.445 149.27 105.061C141.365 93.6778 137.412 81.0511 137.412 67.1813C137.412 53.3116 141.299 40.6849 149.072 29.3012C156.977 17.7867 167.386 9.54337 180.297 4.5712C193.341 -0.400984 206.647 -1.31691 220.218 1.82342C233.788 4.96373 245.25 11.6369 254.605 21.843L232.471 42.0588C227.201 36.3015 220.811 32.5724 213.301 30.8714C205.791 29.1704 198.413 29.6938 191.167 32.4415C184.052 35.1893 178.321 39.7689 173.973 46.1804C169.625 52.4611 167.451 59.4614 167.451 67.1813C167.451 74.7704 169.625 81.7707 173.973 88.1822C178.453 94.4628 184.25 98.9771 191.364 101.725C198.611 104.342 205.989 104.8 213.498 103.099C221.008 101.267 227.398 97.4723 232.668 91.7151Z" fill="url(#paint1_linear_10_323)"/>
<defs>
<linearGradient id="paint0_linear_10_323" x1="15.3" y1="128.846" x2="189.665" y2="189.093" gradientUnits="userSpaceOnUse">
<stop stop-color="#0E64E5"/>
<stop offset="0.934241" stop-color="#7B32FF"/>
</linearGradient>
<linearGradient id="paint1_linear_10_323" x1="15.3" y1="128.846" x2="189.665" y2="189.093" gradientUnits="userSpaceOnUse">
<stop stop-color="#0E64E5"/>
<stop offset="0.934241" stop-color="#7B32FF"/>
</linearGradient>
</defs>
</svg>
